<svg data-name="Layer 1" xmlns="http://www.w3.org/2000/svg" viewBox="0 0 200 200"><defs><style>.cls-1{fill:#323e48;}.cls-2{fill:#eb008b;}</style></defs><title>Artboard 1 copy 3</title><g id="user"><g id="user-2" data-name="user"><path class="cls-1" d="M141.36,149.52v14.62c0,.86-.71,2-1.57,2H8.41c-.86,0-1.58-1.11-1.58-2V149.52c0-6.15,1.17-8.68,5.85-11.35,3.77-2.14,29.06-16.67,40.94-21.78v-22C50,91.71,47.77,87.59,47.77,81.3V63.85c0-14.48,8.78-26.32,26.32-26.32s26.32,11.84,26.32,26.32V81.3c0,6.23-2.19,10.34-5.84,13v22.09c12.61,5.11,37.17,19.64,40.94,21.78C140.19,140.84,141.36,143.37,141.36,149.52Z"/></g></g><path class="cls-2" d="M193.71,156.11c-.57-3.33-2.1-5.23-5.56-7.2-3.77-2.14-17.36-13.75-29.25-18.85v-11.7A35.3,35.3,0,0,0,181.68,108c3.4-3.69-3-7.22-8-13.07s-5.86-10.43-5.86-22.13a23.56,23.56,0,0,0-23.57-23.21c-14.5,0-23.4,12.19-23.4,23.21,0,11.7-.1,16.29-5.12,22.13s-12.4,10.7-9,14.39,17,8.28,22.89,9v7.23l9.87,5.43c8.53,4.85,7.68,9.66,7.68,17.54,0,0,.12,16.91,0,17.55h43.87a2.93,2.93,0,0,0,2.93-2.93v-5.84A3,3,0,0,0,193.71,156.11Z"/></svg>