<svg data-name="Layer 1" xmlns="http://www.w3.org/2000/svg" viewBox="0 0 200 200"><defs><style>.cls-1{fill:#323e48;}.cls-2{fill:#eb008b;}</style></defs><title>Artboard 1 copy 2</title><path class="cls-1" d="M124.39,83.94A52,52,0,0,1,121.5,95l8.66,8.28a65.35,65.35,0,0,1-5.48,9.57l-11.54-3.22a53.49,53.49,0,0,1-8.06,8.14l3.35,11.5a64,64,0,0,1-9.52,5.59l-8.37-8.57a53.79,53.79,0,0,1-11.05,3L76.65,141c-1.82.15-3.65.28-5.52.29s-3.69-.09-5.54-.25l-3-11.57a53,53,0,0,1-11.07-2.91l-8.29,8.67a68,68,0,0,1-9.58-5.48l3.22-11.55a53.87,53.87,0,0,1-8.14-8l-11.49,3.35a66.28,66.28,0,0,1-5.58-9.52l8.57-8.38a55.19,55.19,0,0,1-3-11L5.63,81.67c-.15-1.82-.26-3.65-.28-5.51s.09-3.7.22-5.53l11.59-3A52.28,52.28,0,0,1,20.09,56.6l-8.66-8.29a61.6,61.6,0,0,1,5.47-9.58L28.44,42a52.07,52.07,0,0,1,8.05-8.14L33.13,22.3a64.93,64.93,0,0,1,9.51-5.56L51,25.3a54.58,54.58,0,0,1,11.07-3l2.83-11.61c1.83-.17,3.66-.27,5.52-.27s3.69.07,5.52.21l3,11.59A54,54,0,0,1,90,25.08l8.28-8.66a65.64,65.64,0,0,1,9.58,5.49l-3.22,11.53a54.83,54.83,0,0,1,8.13,8.06l11.49-3.35a64.59,64.59,0,0,1,5.6,9.52L121.29,56a55.15,55.15,0,0,1,3,11.06l11.61,2.83c.14,1.82.26,3.67.29,5.54s-.11,3.68-.24,5.52ZM97.25,75.66a26.46,26.46,0,1,0-26.33,26.59A26.48,26.48,0,0,0,97.25,75.66Z"/><path class="cls-2" d="M189,152.54a42.11,42.11,0,0,1-.4,5.06l-8.45,2.89a33.81,33.81,0,0,1-4,9.32l3.75,8.13a40.79,40.79,0,0,1-7.24,7.08l-8-3.93a33.76,33.76,0,0,1-9.39,3.76l-3.08,8.4a41.31,41.31,0,0,1-10.1-.1l-2.89-8.47a33.28,33.28,0,0,1-9.3-4l-8.15,3.76a41.54,41.54,0,0,1-7-7.23l3.91-8a33.17,33.17,0,0,1-3.79-9.41l-8.4-3.07a40.44,40.44,0,0,1-.27-5.06,42,42,0,0,1,.38-5L115,143.7a32.87,32.87,0,0,1,4-9.31l-3.75-8.15a41.85,41.85,0,0,1,7.2-7.06l8.06,3.92a34.7,34.7,0,0,1,9.38-3.76L143,111a42.55,42.55,0,0,1,5.06-.27,43.78,43.78,0,0,1,5,.37l2.91,8.46a34.91,34.91,0,0,1,9.3,4l8.13-3.75a41.64,41.64,0,0,1,7.08,7.21L176.54,135a34.11,34.11,0,0,1,3.78,9.4l8.39,3.1A40.06,40.06,0,0,1,189,152.54Zm-26.2-.27a15.23,15.23,0,1,0-15.4,15A15.23,15.23,0,0,0,162.8,152.27Z"/></svg>